<mxfile host="app.diagrams.net" modified="2024-06-01T18:40:37.606Z" agent="Mozilla/5.0 (X11; Linux x86_64) AppleWebKit/537.36 (KHTML, like Gecko) Chrome/125.0.0.0 Safari/537.36" etag="FYee59xp2Efz3LTqOKCT" version="24.4.13" type="google">
  <diagram name="Page-1" id="03018318-947c-dd8e-b7a3-06fadd420f32">
    <mxGraphModel grid="1" page="1" gridSize="10" guides="1" tooltips="1" connect="1" arrows="1" fold="1" pageScale="1" pageWidth="1100" pageHeight="850" background="#ffffff" math="0" shadow="0">
      <root>
        <mxCell id="0" />
        <mxCell id="1" parent="0" />
        <mxCell id="ZyAtSVCC6lzZeVUkMO0P-5" value="" style="rounded=0;whiteSpace=wrap;html=1;fillColor=#f5f5f5;fontColor=#333333;strokeColor=#666666;" vertex="1" parent="1">
          <mxGeometry y="1510" width="1100" height="190" as="geometry" />
        </mxCell>
        <mxCell id="ZyAtSVCC6lzZeVUkMO0P-3" value="" style="rounded=0;whiteSpace=wrap;html=1;" vertex="1" parent="1">
          <mxGeometry y="130" width="1100" height="40" as="geometry" />
        </mxCell>
        <mxCell id="ZyAtSVCC6lzZeVUkMO0P-2" value="" style="rounded=0;whiteSpace=wrap;html=1;fillColor=#f5f5f5;fontColor=#333333;strokeColor=#666666;" vertex="1" parent="1">
          <mxGeometry y="40" width="1100" height="90" as="geometry" />
        </mxCell>
        <mxCell id="ZyAtSVCC6lzZeVUkMO0P-1" value="" style="rounded=0;whiteSpace=wrap;html=1;" vertex="1" parent="1">
          <mxGeometry width="1100" height="40" as="geometry" />
        </mxCell>
        <mxCell id="YPrZ4P48iWF1rKAgXMPz-6" value="LOGO" style="rounded=1;whiteSpace=wrap;html=1;strokeColor=default;" vertex="1" parent="1">
          <mxGeometry x="130" y="55" width="120" height="60" as="geometry" />
        </mxCell>
        <mxCell id="YPrZ4P48iWF1rKAgXMPz-8" value="Buscador" style="rounded=1;whiteSpace=wrap;html=1;" vertex="1" parent="1">
          <mxGeometry x="300" y="70" width="400" height="30" as="geometry" />
        </mxCell>
        <mxCell id="YPrZ4P48iWF1rKAgXMPz-9" value="Telefono" style="text;html=1;align=center;verticalAlign=middle;whiteSpace=wrap;rounded=0;" vertex="1" parent="1">
          <mxGeometry x="660" y="10" width="60" height="30" as="geometry" />
        </mxCell>
        <mxCell id="YPrZ4P48iWF1rKAgXMPz-11" value="correo@correo.com" style="text;html=1;align=center;verticalAlign=middle;whiteSpace=wrap;rounded=0;" vertex="1" parent="1">
          <mxGeometry x="760" y="10" width="60" height="30" as="geometry" />
        </mxCell>
        <mxCell id="YPrZ4P48iWF1rKAgXMPz-12" value="Direccion" style="text;html=1;align=center;verticalAlign=middle;whiteSpace=wrap;rounded=0;" vertex="1" parent="1">
          <mxGeometry x="860" y="10" width="60" height="30" as="geometry" />
        </mxCell>
        <mxCell id="YPrZ4P48iWF1rKAgXMPz-14" value="" style="shape=sumEllipse;perimeter=ellipsePerimeter;whiteSpace=wrap;html=1;backgroundOutline=1;" vertex="1" parent="1">
          <mxGeometry x="740" y="70" width="30" height="30" as="geometry" />
        </mxCell>
        <mxCell id="YPrZ4P48iWF1rKAgXMPz-15" value="" style="shape=sumEllipse;perimeter=ellipsePerimeter;whiteSpace=wrap;html=1;backgroundOutline=1;" vertex="1" parent="1">
          <mxGeometry x="780" y="70" width="30" height="30" as="geometry" />
        </mxCell>
        <mxCell id="YPrZ4P48iWF1rKAgXMPz-16" value="" style="shape=sumEllipse;perimeter=ellipsePerimeter;whiteSpace=wrap;html=1;backgroundOutline=1;" vertex="1" parent="1">
          <mxGeometry x="820" y="70" width="30" height="30" as="geometry" />
        </mxCell>
        <mxCell id="YPrZ4P48iWF1rKAgXMPz-17" value="" style="shape=sumEllipse;perimeter=ellipsePerimeter;whiteSpace=wrap;html=1;backgroundOutline=1;" vertex="1" parent="1">
          <mxGeometry x="860" y="70" width="30" height="30" as="geometry" />
        </mxCell>
        <mxCell id="YPrZ4P48iWF1rKAgXMPz-18" value="" style="shape=sumEllipse;perimeter=ellipsePerimeter;whiteSpace=wrap;html=1;backgroundOutline=1;" vertex="1" parent="1">
          <mxGeometry x="900" y="70" width="30" height="30" as="geometry" />
        </mxCell>
        <mxCell id="YPrZ4P48iWF1rKAgXMPz-21" value="Menu Item 1" style="text;html=1;align=center;verticalAlign=middle;whiteSpace=wrap;rounded=0;" vertex="1" parent="1">
          <mxGeometry x="113" y="140" width="90" height="30" as="geometry" />
        </mxCell>
        <mxCell id="YPrZ4P48iWF1rKAgXMPz-22" value="Menu Item 2" style="text;html=1;align=center;verticalAlign=middle;whiteSpace=wrap;rounded=0;" vertex="1" parent="1">
          <mxGeometry x="245" y="140" width="90" height="30" as="geometry" />
        </mxCell>
        <mxCell id="YPrZ4P48iWF1rKAgXMPz-23" value="Menu Item 3" style="text;html=1;align=center;verticalAlign=middle;whiteSpace=wrap;rounded=0;" vertex="1" parent="1">
          <mxGeometry x="376" y="140" width="90" height="30" as="geometry" />
        </mxCell>
        <mxCell id="YPrZ4P48iWF1rKAgXMPz-24" value="Menu Item 4" style="text;html=1;align=center;verticalAlign=middle;whiteSpace=wrap;rounded=0;" vertex="1" parent="1">
          <mxGeometry x="508" y="140" width="90" height="30" as="geometry" />
        </mxCell>
        <mxCell id="YPrZ4P48iWF1rKAgXMPz-25" value="Menu Item 5" style="text;html=1;align=center;verticalAlign=middle;whiteSpace=wrap;rounded=0;" vertex="1" parent="1">
          <mxGeometry x="640" y="140" width="90" height="30" as="geometry" />
        </mxCell>
        <mxCell id="YPrZ4P48iWF1rKAgXMPz-26" value="Menu Item 6" style="text;html=1;align=center;verticalAlign=middle;whiteSpace=wrap;rounded=0;" vertex="1" parent="1">
          <mxGeometry x="771" y="140" width="90" height="30" as="geometry" />
        </mxCell>
        <mxCell id="YPrZ4P48iWF1rKAgXMPz-27" value="Menu Item 7" style="text;html=1;align=center;verticalAlign=middle;whiteSpace=wrap;rounded=0;" vertex="1" parent="1">
          <mxGeometry x="903" y="140" width="90" height="30" as="geometry" />
        </mxCell>
        <mxCell id="YPrZ4P48iWF1rKAgXMPz-28" value="" style="shape=ext;double=1;rounded=0;whiteSpace=wrap;html=1;" vertex="1" parent="1">
          <mxGeometry x="80" y="164" width="940" height="186" as="geometry" />
        </mxCell>
        <mxCell id="YPrZ4P48iWF1rKAgXMPz-36" value="" style="group" connectable="0" vertex="1" parent="1">
          <mxGeometry x="90" y="180" width="100" height="82" as="geometry" />
        </mxCell>
        <mxCell id="YPrZ4P48iWF1rKAgXMPz-29" value="Producto" style="text;html=1;align=center;verticalAlign=middle;whiteSpace=wrap;rounded=0;" vertex="1" parent="YPrZ4P48iWF1rKAgXMPz-36">
          <mxGeometry width="90" height="30" as="geometry" />
        </mxCell>
        <mxCell id="YPrZ4P48iWF1rKAgXMPz-30" value="* Item" style="text;html=1;align=center;verticalAlign=middle;whiteSpace=wrap;rounded=0;" vertex="1" parent="YPrZ4P48iWF1rKAgXMPz-36">
          <mxGeometry x="10" y="20" width="90" height="30" as="geometry" />
        </mxCell>
        <mxCell id="YPrZ4P48iWF1rKAgXMPz-31" value="* Item" style="text;html=1;align=center;verticalAlign=middle;whiteSpace=wrap;rounded=0;" vertex="1" parent="YPrZ4P48iWF1rKAgXMPz-36">
          <mxGeometry x="10" y="35" width="90" height="30" as="geometry" />
        </mxCell>
        <mxCell id="YPrZ4P48iWF1rKAgXMPz-32" value="* Item" style="text;html=1;align=center;verticalAlign=middle;whiteSpace=wrap;rounded=0;" vertex="1" parent="YPrZ4P48iWF1rKAgXMPz-36">
          <mxGeometry x="10" y="52" width="90" height="30" as="geometry" />
        </mxCell>
        <mxCell id="YPrZ4P48iWF1rKAgXMPz-37" value="" style="group" connectable="0" vertex="1" parent="1">
          <mxGeometry x="90" y="258" width="100" height="82" as="geometry" />
        </mxCell>
        <mxCell id="YPrZ4P48iWF1rKAgXMPz-38" value="Producto" style="text;html=1;align=center;verticalAlign=middle;whiteSpace=wrap;rounded=0;" vertex="1" parent="YPrZ4P48iWF1rKAgXMPz-37">
          <mxGeometry width="90" height="30" as="geometry" />
        </mxCell>
        <mxCell id="YPrZ4P48iWF1rKAgXMPz-39" value="* Item" style="text;html=1;align=center;verticalAlign=middle;whiteSpace=wrap;rounded=0;" vertex="1" parent="YPrZ4P48iWF1rKAgXMPz-37">
          <mxGeometry x="10" y="20" width="90" height="30" as="geometry" />
        </mxCell>
        <mxCell id="YPrZ4P48iWF1rKAgXMPz-40" value="* Item" style="text;html=1;align=center;verticalAlign=middle;whiteSpace=wrap;rounded=0;" vertex="1" parent="YPrZ4P48iWF1rKAgXMPz-37">
          <mxGeometry x="10" y="35" width="90" height="30" as="geometry" />
        </mxCell>
        <mxCell id="YPrZ4P48iWF1rKAgXMPz-41" value="* Item" style="text;html=1;align=center;verticalAlign=middle;whiteSpace=wrap;rounded=0;" vertex="1" parent="YPrZ4P48iWF1rKAgXMPz-37">
          <mxGeometry x="10" y="52" width="90" height="30" as="geometry" />
        </mxCell>
        <mxCell id="YPrZ4P48iWF1rKAgXMPz-42" value="" style="group" connectable="0" vertex="1" parent="1">
          <mxGeometry x="200" y="180" width="100" height="82" as="geometry" />
        </mxCell>
        <mxCell id="YPrZ4P48iWF1rKAgXMPz-43" value="Producto" style="text;html=1;align=center;verticalAlign=middle;whiteSpace=wrap;rounded=0;" vertex="1" parent="YPrZ4P48iWF1rKAgXMPz-42">
          <mxGeometry width="90" height="30" as="geometry" />
        </mxCell>
        <mxCell id="YPrZ4P48iWF1rKAgXMPz-44" value="* Item" style="text;html=1;align=center;verticalAlign=middle;whiteSpace=wrap;rounded=0;" vertex="1" parent="YPrZ4P48iWF1rKAgXMPz-42">
          <mxGeometry x="10" y="20" width="90" height="30" as="geometry" />
        </mxCell>
        <mxCell id="YPrZ4P48iWF1rKAgXMPz-45" value="* Item" style="text;html=1;align=center;verticalAlign=middle;whiteSpace=wrap;rounded=0;" vertex="1" parent="YPrZ4P48iWF1rKAgXMPz-42">
          <mxGeometry x="10" y="35" width="90" height="30" as="geometry" />
        </mxCell>
        <mxCell id="YPrZ4P48iWF1rKAgXMPz-46" value="* Item" style="text;html=1;align=center;verticalAlign=middle;whiteSpace=wrap;rounded=0;" vertex="1" parent="YPrZ4P48iWF1rKAgXMPz-42">
          <mxGeometry x="10" y="52" width="90" height="30" as="geometry" />
        </mxCell>
        <mxCell id="YPrZ4P48iWF1rKAgXMPz-47" value="" style="group" connectable="0" vertex="1" parent="1">
          <mxGeometry x="200" y="258" width="100" height="82" as="geometry" />
        </mxCell>
        <mxCell id="YPrZ4P48iWF1rKAgXMPz-48" value="Producto" style="text;html=1;align=center;verticalAlign=middle;whiteSpace=wrap;rounded=0;" vertex="1" parent="YPrZ4P48iWF1rKAgXMPz-47">
          <mxGeometry width="90" height="30" as="geometry" />
        </mxCell>
        <mxCell id="YPrZ4P48iWF1rKAgXMPz-49" value="* Item" style="text;html=1;align=center;verticalAlign=middle;whiteSpace=wrap;rounded=0;" vertex="1" parent="YPrZ4P48iWF1rKAgXMPz-47">
          <mxGeometry x="10" y="20" width="90" height="30" as="geometry" />
        </mxCell>
        <mxCell id="YPrZ4P48iWF1rKAgXMPz-50" value="* Item" style="text;html=1;align=center;verticalAlign=middle;whiteSpace=wrap;rounded=0;" vertex="1" parent="YPrZ4P48iWF1rKAgXMPz-47">
          <mxGeometry x="10" y="35" width="90" height="30" as="geometry" />
        </mxCell>
        <mxCell id="YPrZ4P48iWF1rKAgXMPz-51" value="* Item" style="text;html=1;align=center;verticalAlign=middle;whiteSpace=wrap;rounded=0;" vertex="1" parent="YPrZ4P48iWF1rKAgXMPz-47">
          <mxGeometry x="10" y="52" width="90" height="30" as="geometry" />
        </mxCell>
        <mxCell id="YPrZ4P48iWF1rKAgXMPz-52" value="" style="group" connectable="0" vertex="1" parent="1">
          <mxGeometry x="310" y="180" width="100" height="82" as="geometry" />
        </mxCell>
        <mxCell id="YPrZ4P48iWF1rKAgXMPz-53" value="Producto" style="text;html=1;align=center;verticalAlign=middle;whiteSpace=wrap;rounded=0;" vertex="1" parent="YPrZ4P48iWF1rKAgXMPz-52">
          <mxGeometry width="90" height="30" as="geometry" />
        </mxCell>
        <mxCell id="YPrZ4P48iWF1rKAgXMPz-54" value="* Item" style="text;html=1;align=center;verticalAlign=middle;whiteSpace=wrap;rounded=0;" vertex="1" parent="YPrZ4P48iWF1rKAgXMPz-52">
          <mxGeometry x="10" y="20" width="90" height="30" as="geometry" />
        </mxCell>
        <mxCell id="YPrZ4P48iWF1rKAgXMPz-55" value="* Item" style="text;html=1;align=center;verticalAlign=middle;whiteSpace=wrap;rounded=0;" vertex="1" parent="YPrZ4P48iWF1rKAgXMPz-52">
          <mxGeometry x="10" y="35" width="90" height="30" as="geometry" />
        </mxCell>
        <mxCell id="YPrZ4P48iWF1rKAgXMPz-56" value="* Item" style="text;html=1;align=center;verticalAlign=middle;whiteSpace=wrap;rounded=0;" vertex="1" parent="YPrZ4P48iWF1rKAgXMPz-52">
          <mxGeometry x="10" y="52" width="90" height="30" as="geometry" />
        </mxCell>
        <mxCell id="YPrZ4P48iWF1rKAgXMPz-57" value="" style="group" connectable="0" vertex="1" parent="1">
          <mxGeometry x="310" y="258" width="100" height="82" as="geometry" />
        </mxCell>
        <mxCell id="YPrZ4P48iWF1rKAgXMPz-58" value="Producto" style="text;html=1;align=center;verticalAlign=middle;whiteSpace=wrap;rounded=0;" vertex="1" parent="YPrZ4P48iWF1rKAgXMPz-57">
          <mxGeometry width="90" height="30" as="geometry" />
        </mxCell>
        <mxCell id="YPrZ4P48iWF1rKAgXMPz-59" value="* Item" style="text;html=1;align=center;verticalAlign=middle;whiteSpace=wrap;rounded=0;" vertex="1" parent="YPrZ4P48iWF1rKAgXMPz-57">
          <mxGeometry x="10" y="20" width="90" height="30" as="geometry" />
        </mxCell>
        <mxCell id="YPrZ4P48iWF1rKAgXMPz-60" value="* Item" style="text;html=1;align=center;verticalAlign=middle;whiteSpace=wrap;rounded=0;" vertex="1" parent="YPrZ4P48iWF1rKAgXMPz-57">
          <mxGeometry x="10" y="35" width="90" height="30" as="geometry" />
        </mxCell>
        <mxCell id="YPrZ4P48iWF1rKAgXMPz-61" value="* Item" style="text;html=1;align=center;verticalAlign=middle;whiteSpace=wrap;rounded=0;" vertex="1" parent="YPrZ4P48iWF1rKAgXMPz-57">
          <mxGeometry x="10" y="52" width="90" height="30" as="geometry" />
        </mxCell>
        <mxCell id="YPrZ4P48iWF1rKAgXMPz-62" value="" style="group" connectable="0" vertex="1" parent="1">
          <mxGeometry x="420" y="180" width="100" height="82" as="geometry" />
        </mxCell>
        <mxCell id="YPrZ4P48iWF1rKAgXMPz-63" value="Producto" style="text;html=1;align=center;verticalAlign=middle;whiteSpace=wrap;rounded=0;" vertex="1" parent="YPrZ4P48iWF1rKAgXMPz-62">
          <mxGeometry width="90" height="30" as="geometry" />
        </mxCell>
        <mxCell id="YPrZ4P48iWF1rKAgXMPz-64" value="* Item" style="text;html=1;align=center;verticalAlign=middle;whiteSpace=wrap;rounded=0;" vertex="1" parent="YPrZ4P48iWF1rKAgXMPz-62">
          <mxGeometry x="10" y="20" width="90" height="30" as="geometry" />
        </mxCell>
        <mxCell id="YPrZ4P48iWF1rKAgXMPz-65" value="* Item" style="text;html=1;align=center;verticalAlign=middle;whiteSpace=wrap;rounded=0;" vertex="1" parent="YPrZ4P48iWF1rKAgXMPz-62">
          <mxGeometry x="10" y="35" width="90" height="30" as="geometry" />
        </mxCell>
        <mxCell id="YPrZ4P48iWF1rKAgXMPz-66" value="* Item" style="text;html=1;align=center;verticalAlign=middle;whiteSpace=wrap;rounded=0;" vertex="1" parent="YPrZ4P48iWF1rKAgXMPz-62">
          <mxGeometry x="10" y="52" width="90" height="30" as="geometry" />
        </mxCell>
        <mxCell id="YPrZ4P48iWF1rKAgXMPz-67" value="" style="group" connectable="0" vertex="1" parent="1">
          <mxGeometry x="420" y="258" width="100" height="82" as="geometry" />
        </mxCell>
        <mxCell id="YPrZ4P48iWF1rKAgXMPz-68" value="Producto" style="text;html=1;align=center;verticalAlign=middle;whiteSpace=wrap;rounded=0;" vertex="1" parent="YPrZ4P48iWF1rKAgXMPz-67">
          <mxGeometry width="90" height="30" as="geometry" />
        </mxCell>
        <mxCell id="YPrZ4P48iWF1rKAgXMPz-69" value="* Item" style="text;html=1;align=center;verticalAlign=middle;whiteSpace=wrap;rounded=0;" vertex="1" parent="YPrZ4P48iWF1rKAgXMPz-67">
          <mxGeometry x="10" y="20" width="90" height="30" as="geometry" />
        </mxCell>
        <mxCell id="YPrZ4P48iWF1rKAgXMPz-70" value="* Item" style="text;html=1;align=center;verticalAlign=middle;whiteSpace=wrap;rounded=0;" vertex="1" parent="YPrZ4P48iWF1rKAgXMPz-67">
          <mxGeometry x="10" y="35" width="90" height="30" as="geometry" />
        </mxCell>
        <mxCell id="YPrZ4P48iWF1rKAgXMPz-71" value="* Item" style="text;html=1;align=center;verticalAlign=middle;whiteSpace=wrap;rounded=0;" vertex="1" parent="YPrZ4P48iWF1rKAgXMPz-67">
          <mxGeometry x="10" y="52" width="90" height="30" as="geometry" />
        </mxCell>
        <mxCell id="YPrZ4P48iWF1rKAgXMPz-78" value="" style="verticalLabelPosition=bottom;shadow=0;dashed=0;align=center;html=1;verticalAlign=top;strokeWidth=1;shape=mxgraph.mockup.graphics.simpleIcon;strokeColor=#999999;" vertex="1" parent="1">
          <mxGeometry x="90" y="400" width="430" height="310" as="geometry" />
        </mxCell>
        <mxCell id="YPrZ4P48iWF1rKAgXMPz-84" value="Productos Relacionados" style="text;html=1;align=center;verticalAlign=middle;whiteSpace=wrap;rounded=0;" vertex="1" parent="1">
          <mxGeometry x="87.5" y="1200" width="150" height="30" as="geometry" />
        </mxCell>
        <mxCell id="YPrZ4P48iWF1rKAgXMPz-90" value="" style="group" connectable="0" vertex="1" parent="1">
          <mxGeometry x="86.5" y="1240" width="171" height="236" as="geometry" />
        </mxCell>
        <mxCell id="YPrZ4P48iWF1rKAgXMPz-85" value="" style="verticalLabelPosition=bottom;shadow=0;dashed=0;align=center;html=1;verticalAlign=top;strokeWidth=1;shape=mxgraph.mockup.graphics.simpleIcon;strokeColor=#999999;" vertex="1" parent="YPrZ4P48iWF1rKAgXMPz-90">
          <mxGeometry x="21" width="110" height="80" as="geometry" />
        </mxCell>
        <mxCell id="YPrZ4P48iWF1rKAgXMPz-86" value="&lt;span style=&quot;color: rgba(0, 0, 0, 0.8); font-family: &amp;quot;Source Sans Pro&amp;quot;, sans-serif; font-size: 10px; letter-spacing: -0.0486px; background-color: rgb(255, 255, 255);&quot;&gt;Lorem ipsum dolor sit amet consectetur adipiscing elit ligula, conubia nisl curabitur fringilla pulvinar vitae taciti fames tortor, bibendum eget velit pretium orci ullamcorper enim.&amp;nbsp;&lt;/span&gt;" style="text;html=1;align=left;verticalAlign=middle;whiteSpace=wrap;rounded=0;fontSize=10;" vertex="1" parent="YPrZ4P48iWF1rKAgXMPz-90">
          <mxGeometry x="11" y="70" width="160" height="110" as="geometry" />
        </mxCell>
        <mxCell id="YPrZ4P48iWF1rKAgXMPz-87" value="$1000" style="text;html=1;align=center;verticalAlign=middle;whiteSpace=wrap;rounded=0;" vertex="1" parent="YPrZ4P48iWF1rKAgXMPz-90">
          <mxGeometry x="31" y="170" width="60" height="30" as="geometry" />
        </mxCell>
        <mxCell id="YPrZ4P48iWF1rKAgXMPz-88" value="Agregar" style="strokeWidth=1;shadow=0;dashed=0;align=center;html=1;shape=mxgraph.mockup.buttons.button;strokeColor=#666666;fontColor=#ffffff;mainText=;buttonStyle=round;fontSize=17;fontStyle=1;fillColor=#008cff;whiteSpace=wrap;" vertex="1" parent="YPrZ4P48iWF1rKAgXMPz-90">
          <mxGeometry y="206" width="147" height="30" as="geometry" />
        </mxCell>
        <mxCell id="YPrZ4P48iWF1rKAgXMPz-89" value="" style="shape=sumEllipse;perimeter=ellipsePerimeter;whiteSpace=wrap;html=1;backgroundOutline=1;" vertex="1" parent="YPrZ4P48iWF1rKAgXMPz-90">
          <mxGeometry x="117" y="211" width="20" height="20" as="geometry" />
        </mxCell>
        <mxCell id="YPrZ4P48iWF1rKAgXMPz-91" value="" style="group" connectable="0" vertex="1" parent="1">
          <mxGeometry x="271.5" y="1240" width="171" height="236" as="geometry" />
        </mxCell>
        <mxCell id="YPrZ4P48iWF1rKAgXMPz-92" value="" style="verticalLabelPosition=bottom;shadow=0;dashed=0;align=center;html=1;verticalAlign=top;strokeWidth=1;shape=mxgraph.mockup.graphics.simpleIcon;strokeColor=#999999;" vertex="1" parent="YPrZ4P48iWF1rKAgXMPz-91">
          <mxGeometry x="21" width="110" height="80" as="geometry" />
        </mxCell>
        <mxCell id="YPrZ4P48iWF1rKAgXMPz-93" value="&lt;span style=&quot;color: rgba(0, 0, 0, 0.8); font-family: &amp;quot;Source Sans Pro&amp;quot;, sans-serif; font-size: 10px; letter-spacing: -0.0486px; background-color: rgb(255, 255, 255);&quot;&gt;Lorem ipsum dolor sit amet consectetur adipiscing elit ligula, conubia nisl curabitur fringilla pulvinar vitae taciti fames tortor, bibendum eget velit pretium orci ullamcorper enim.&amp;nbsp;&lt;/span&gt;" style="text;html=1;align=left;verticalAlign=middle;whiteSpace=wrap;rounded=0;fontSize=10;" vertex="1" parent="YPrZ4P48iWF1rKAgXMPz-91">
          <mxGeometry x="11" y="70" width="160" height="110" as="geometry" />
        </mxCell>
        <mxCell id="YPrZ4P48iWF1rKAgXMPz-94" value="$1000" style="text;html=1;align=center;verticalAlign=middle;whiteSpace=wrap;rounded=0;" vertex="1" parent="YPrZ4P48iWF1rKAgXMPz-91">
          <mxGeometry x="31" y="170" width="60" height="30" as="geometry" />
        </mxCell>
        <mxCell id="YPrZ4P48iWF1rKAgXMPz-95" value="Agregar" style="strokeWidth=1;shadow=0;dashed=0;align=center;html=1;shape=mxgraph.mockup.buttons.button;strokeColor=#666666;fontColor=#ffffff;mainText=;buttonStyle=round;fontSize=17;fontStyle=1;fillColor=#008cff;whiteSpace=wrap;" vertex="1" parent="YPrZ4P48iWF1rKAgXMPz-91">
          <mxGeometry y="206" width="147" height="30" as="geometry" />
        </mxCell>
        <mxCell id="YPrZ4P48iWF1rKAgXMPz-96" value="" style="shape=sumEllipse;perimeter=ellipsePerimeter;whiteSpace=wrap;html=1;backgroundOutline=1;" vertex="1" parent="YPrZ4P48iWF1rKAgXMPz-91">
          <mxGeometry x="117" y="211" width="20" height="20" as="geometry" />
        </mxCell>
        <mxCell id="YPrZ4P48iWF1rKAgXMPz-97" value="" style="group;fontStyle=1" connectable="0" vertex="1" parent="1">
          <mxGeometry x="457.5" y="1240" width="171" height="236" as="geometry" />
        </mxCell>
        <mxCell id="YPrZ4P48iWF1rKAgXMPz-98" value="" style="verticalLabelPosition=bottom;shadow=0;dashed=0;align=center;html=1;verticalAlign=top;strokeWidth=1;shape=mxgraph.mockup.graphics.simpleIcon;strokeColor=#999999;" vertex="1" parent="YPrZ4P48iWF1rKAgXMPz-97">
          <mxGeometry x="21" width="110" height="80" as="geometry" />
        </mxCell>
        <mxCell id="YPrZ4P48iWF1rKAgXMPz-99" value="&lt;span style=&quot;color: rgba(0, 0, 0, 0.8); font-family: &amp;quot;Source Sans Pro&amp;quot;, sans-serif; font-size: 10px; letter-spacing: -0.0486px; background-color: rgb(255, 255, 255);&quot;&gt;Lorem ipsum dolor sit amet consectetur adipiscing elit ligula, conubia nisl curabitur fringilla pulvinar vitae taciti fames tortor, bibendum eget velit pretium orci ullamcorper enim.&amp;nbsp;&lt;/span&gt;" style="text;html=1;align=left;verticalAlign=middle;whiteSpace=wrap;rounded=0;fontSize=10;" vertex="1" parent="YPrZ4P48iWF1rKAgXMPz-97">
          <mxGeometry x="11" y="70" width="160" height="110" as="geometry" />
        </mxCell>
        <mxCell id="YPrZ4P48iWF1rKAgXMPz-100" value="$1000" style="text;html=1;align=center;verticalAlign=middle;whiteSpace=wrap;rounded=0;" vertex="1" parent="YPrZ4P48iWF1rKAgXMPz-97">
          <mxGeometry x="31" y="170" width="60" height="30" as="geometry" />
        </mxCell>
        <mxCell id="YPrZ4P48iWF1rKAgXMPz-101" value="Agregar" style="strokeWidth=1;shadow=0;dashed=0;align=center;html=1;shape=mxgraph.mockup.buttons.button;strokeColor=#666666;fontColor=#ffffff;mainText=;buttonStyle=round;fontSize=17;fontStyle=1;fillColor=#008cff;whiteSpace=wrap;" vertex="1" parent="YPrZ4P48iWF1rKAgXMPz-97">
          <mxGeometry y="206" width="147" height="30" as="geometry" />
        </mxCell>
        <mxCell id="YPrZ4P48iWF1rKAgXMPz-102" value="" style="shape=sumEllipse;perimeter=ellipsePerimeter;whiteSpace=wrap;html=1;backgroundOutline=1;" vertex="1" parent="YPrZ4P48iWF1rKAgXMPz-97">
          <mxGeometry x="117" y="211" width="20" height="20" as="geometry" />
        </mxCell>
        <mxCell id="YPrZ4P48iWF1rKAgXMPz-103" value="" style="group;fontStyle=1" connectable="0" vertex="1" parent="1">
          <mxGeometry x="827.5" y="1240" width="171" height="236" as="geometry" />
        </mxCell>
        <mxCell id="YPrZ4P48iWF1rKAgXMPz-104" value="" style="verticalLabelPosition=bottom;shadow=0;dashed=0;align=center;html=1;verticalAlign=top;strokeWidth=1;shape=mxgraph.mockup.graphics.simpleIcon;strokeColor=#999999;" vertex="1" parent="YPrZ4P48iWF1rKAgXMPz-103">
          <mxGeometry x="21" width="110" height="80" as="geometry" />
        </mxCell>
        <mxCell id="YPrZ4P48iWF1rKAgXMPz-105" value="&lt;span style=&quot;color: rgba(0, 0, 0, 0.8); font-family: &amp;quot;Source Sans Pro&amp;quot;, sans-serif; font-size: 10px; letter-spacing: -0.0486px; background-color: rgb(255, 255, 255);&quot;&gt;Lorem ipsum dolor sit amet consectetur adipiscing elit ligula, conubia nisl curabitur fringilla pulvinar vitae taciti fames tortor, bibendum eget velit pretium orci ullamcorper enim.&amp;nbsp;&lt;/span&gt;" style="text;html=1;align=left;verticalAlign=middle;whiteSpace=wrap;rounded=0;fontSize=10;" vertex="1" parent="YPrZ4P48iWF1rKAgXMPz-103">
          <mxGeometry x="11" y="70" width="160" height="110" as="geometry" />
        </mxCell>
        <mxCell id="YPrZ4P48iWF1rKAgXMPz-106" value="$1000" style="text;html=1;align=center;verticalAlign=middle;whiteSpace=wrap;rounded=0;" vertex="1" parent="YPrZ4P48iWF1rKAgXMPz-103">
          <mxGeometry x="31" y="170" width="60" height="30" as="geometry" />
        </mxCell>
        <mxCell id="YPrZ4P48iWF1rKAgXMPz-107" value="Agregar" style="strokeWidth=1;shadow=0;dashed=0;align=center;html=1;shape=mxgraph.mockup.buttons.button;strokeColor=#666666;fontColor=#ffffff;mainText=;buttonStyle=round;fontSize=17;fontStyle=1;fillColor=#008cff;whiteSpace=wrap;" vertex="1" parent="YPrZ4P48iWF1rKAgXMPz-103">
          <mxGeometry y="206" width="147" height="30" as="geometry" />
        </mxCell>
        <mxCell id="YPrZ4P48iWF1rKAgXMPz-108" value="" style="shape=sumEllipse;perimeter=ellipsePerimeter;whiteSpace=wrap;html=1;backgroundOutline=1;" vertex="1" parent="YPrZ4P48iWF1rKAgXMPz-103">
          <mxGeometry x="117" y="211" width="20" height="20" as="geometry" />
        </mxCell>
        <mxCell id="YPrZ4P48iWF1rKAgXMPz-109" value="" style="group;fontStyle=1" connectable="0" vertex="1" parent="1">
          <mxGeometry x="642.5" y="1240" width="171" height="236" as="geometry" />
        </mxCell>
        <mxCell id="YPrZ4P48iWF1rKAgXMPz-110" value="" style="verticalLabelPosition=bottom;shadow=0;dashed=0;align=center;html=1;verticalAlign=top;strokeWidth=1;shape=mxgraph.mockup.graphics.simpleIcon;strokeColor=#999999;" vertex="1" parent="YPrZ4P48iWF1rKAgXMPz-109">
          <mxGeometry x="21" width="110" height="80" as="geometry" />
        </mxCell>
        <mxCell id="YPrZ4P48iWF1rKAgXMPz-111" value="&lt;span style=&quot;color: rgba(0, 0, 0, 0.8); font-family: &amp;quot;Source Sans Pro&amp;quot;, sans-serif; font-size: 10px; letter-spacing: -0.0486px; background-color: rgb(255, 255, 255);&quot;&gt;Lorem ipsum dolor sit amet consectetur adipiscing elit ligula, conubia nisl curabitur fringilla pulvinar vitae taciti fames tortor, bibendum eget velit pretium orci ullamcorper enim.&amp;nbsp;&lt;/span&gt;" style="text;html=1;align=left;verticalAlign=middle;whiteSpace=wrap;rounded=0;fontSize=10;" vertex="1" parent="YPrZ4P48iWF1rKAgXMPz-109">
          <mxGeometry x="11" y="70" width="160" height="110" as="geometry" />
        </mxCell>
        <mxCell id="YPrZ4P48iWF1rKAgXMPz-112" value="$1000" style="text;html=1;align=center;verticalAlign=middle;whiteSpace=wrap;rounded=0;" vertex="1" parent="YPrZ4P48iWF1rKAgXMPz-109">
          <mxGeometry x="31" y="170" width="60" height="30" as="geometry" />
        </mxCell>
        <mxCell id="YPrZ4P48iWF1rKAgXMPz-113" value="Agregar" style="strokeWidth=1;shadow=0;dashed=0;align=center;html=1;shape=mxgraph.mockup.buttons.button;strokeColor=#666666;fontColor=#ffffff;mainText=;buttonStyle=round;fontSize=17;fontStyle=1;fillColor=#008cff;whiteSpace=wrap;" vertex="1" parent="YPrZ4P48iWF1rKAgXMPz-109">
          <mxGeometry y="206" width="147" height="30" as="geometry" />
        </mxCell>
        <mxCell id="YPrZ4P48iWF1rKAgXMPz-114" value="" style="shape=sumEllipse;perimeter=ellipsePerimeter;whiteSpace=wrap;html=1;backgroundOutline=1;" vertex="1" parent="YPrZ4P48iWF1rKAgXMPz-109">
          <mxGeometry x="117" y="211" width="20" height="20" as="geometry" />
        </mxCell>
        <mxCell id="YPrZ4P48iWF1rKAgXMPz-153" value="Contacto" style="text;html=1;align=center;verticalAlign=middle;whiteSpace=wrap;rounded=0;" vertex="1" parent="1">
          <mxGeometry x="252.5" y="1515" width="110" height="30" as="geometry" />
        </mxCell>
        <mxCell id="YPrZ4P48iWF1rKAgXMPz-156" value="datos del sitio" style="text;html=1;align=center;verticalAlign=middle;whiteSpace=wrap;rounded=0;" vertex="1" parent="1">
          <mxGeometry x="252.5" y="1545" width="110" height="30" as="geometry" />
        </mxCell>
        <mxCell id="YPrZ4P48iWF1rKAgXMPz-157" value="datos del sitio" style="text;html=1;align=center;verticalAlign=middle;whiteSpace=wrap;rounded=0;" vertex="1" parent="1">
          <mxGeometry x="252.5" y="1567" width="110" height="30" as="geometry" />
        </mxCell>
        <mxCell id="YPrZ4P48iWF1rKAgXMPz-158" value="datos del sitio" style="text;html=1;align=center;verticalAlign=middle;whiteSpace=wrap;rounded=0;" vertex="1" parent="1">
          <mxGeometry x="252.5" y="1589" width="110" height="30" as="geometry" />
        </mxCell>
        <mxCell id="YPrZ4P48iWF1rKAgXMPz-159" value="datos del sitio" style="text;html=1;align=center;verticalAlign=middle;whiteSpace=wrap;rounded=0;" vertex="1" parent="1">
          <mxGeometry x="252.5" y="1611" width="110" height="30" as="geometry" />
        </mxCell>
        <mxCell id="YPrZ4P48iWF1rKAgXMPz-160" value="datos del sitio" style="text;html=1;align=center;verticalAlign=middle;whiteSpace=wrap;rounded=0;" vertex="1" parent="1">
          <mxGeometry x="252.5" y="1633" width="110" height="30" as="geometry" />
        </mxCell>
        <mxCell id="YPrZ4P48iWF1rKAgXMPz-161" value="datos del sitio" style="text;html=1;align=center;verticalAlign=middle;whiteSpace=wrap;rounded=0;" vertex="1" parent="1">
          <mxGeometry x="252.5" y="1655" width="110" height="30" as="geometry" />
        </mxCell>
        <mxCell id="YPrZ4P48iWF1rKAgXMPz-162" value="datos del sitio" style="text;html=1;align=center;verticalAlign=middle;whiteSpace=wrap;rounded=0;" vertex="1" parent="1">
          <mxGeometry x="547.5" y="1545" width="110" height="30" as="geometry" />
        </mxCell>
        <mxCell id="YPrZ4P48iWF1rKAgXMPz-163" value="datos del sitio" style="text;html=1;align=center;verticalAlign=middle;whiteSpace=wrap;rounded=0;" vertex="1" parent="1">
          <mxGeometry x="547.5" y="1567" width="110" height="30" as="geometry" />
        </mxCell>
        <mxCell id="YPrZ4P48iWF1rKAgXMPz-164" value="datos del sitio" style="text;html=1;align=center;verticalAlign=middle;whiteSpace=wrap;rounded=0;" vertex="1" parent="1">
          <mxGeometry x="547.5" y="1589" width="110" height="30" as="geometry" />
        </mxCell>
        <mxCell id="YPrZ4P48iWF1rKAgXMPz-165" value="datos del sitio" style="text;html=1;align=center;verticalAlign=middle;whiteSpace=wrap;rounded=0;" vertex="1" parent="1">
          <mxGeometry x="547.5" y="1611" width="110" height="30" as="geometry" />
        </mxCell>
        <mxCell id="YPrZ4P48iWF1rKAgXMPz-166" value="datos del sitio" style="text;html=1;align=center;verticalAlign=middle;whiteSpace=wrap;rounded=0;" vertex="1" parent="1">
          <mxGeometry x="547.5" y="1633" width="110" height="30" as="geometry" />
        </mxCell>
        <mxCell id="YPrZ4P48iWF1rKAgXMPz-167" value="Contacto WEB" style="text;html=1;align=center;verticalAlign=middle;whiteSpace=wrap;rounded=0;" vertex="1" parent="1">
          <mxGeometry x="547.5" y="1515" width="110" height="30" as="geometry" />
        </mxCell>
        <mxCell id="ZyAtSVCC6lzZeVUkMO0P-6" value="" style="shape=sumEllipse;perimeter=ellipsePerimeter;whiteSpace=wrap;html=1;backgroundOutline=1;" vertex="1" parent="1">
          <mxGeometry x="864" y="1650" width="26" height="26" as="geometry" />
        </mxCell>
        <mxCell id="ZyAtSVCC6lzZeVUkMO0P-7" value="" style="shape=sumEllipse;perimeter=ellipsePerimeter;whiteSpace=wrap;html=1;backgroundOutline=1;" vertex="1" parent="1">
          <mxGeometry x="798.5" y="1650" width="26" height="26" as="geometry" />
        </mxCell>
        <mxCell id="ZyAtSVCC6lzZeVUkMO0P-8" value="" style="shape=sumEllipse;perimeter=ellipsePerimeter;whiteSpace=wrap;html=1;backgroundOutline=1;" vertex="1" parent="1">
          <mxGeometry x="831" y="1650" width="26" height="26" as="geometry" />
        </mxCell>
        <mxCell id="ZyAtSVCC6lzZeVUkMO0P-11" value="/ Home / Categoría / Producto / Detalle ...." style="text;html=1;align=center;verticalAlign=middle;whiteSpace=wrap;rounded=0;" vertex="1" parent="1">
          <mxGeometry x="79" y="360" width="265" height="30" as="geometry" />
        </mxCell>
        <mxCell id="ZyAtSVCC6lzZeVUkMO0P-13" value="Detalle del Producto" style="text;html=1;align=center;verticalAlign=middle;whiteSpace=wrap;rounded=0;fontStyle=1;fontSize=32;" vertex="1" parent="1">
          <mxGeometry x="621" y="400" width="420" height="30" as="geometry" />
        </mxCell>
        <mxCell id="ZyAtSVCC6lzZeVUkMO0P-14" value="&lt;div&gt;Datos&lt;/div&gt;" style="text;html=1;align=left;verticalAlign=middle;whiteSpace=wrap;rounded=0;fontSize=20;" vertex="1" parent="1">
          <mxGeometry x="630" y="450" width="90" height="30" as="geometry" />
        </mxCell>
        <mxCell id="ZyAtSVCC6lzZeVUkMO0P-15" value="&lt;div&gt;$ 10000&lt;/div&gt;" style="text;html=1;align=left;verticalAlign=middle;whiteSpace=wrap;rounded=0;fontSize=20;" vertex="1" parent="1">
          <mxGeometry x="630" y="495" width="90" height="30" as="geometry" />
        </mxCell>
        <mxCell id="ZyAtSVCC6lzZeVUkMO0P-16" value="&lt;div&gt;Cuotas 12/ 24 /36&lt;/div&gt;" style="text;html=1;align=left;verticalAlign=middle;whiteSpace=wrap;rounded=0;fontSize=20;" vertex="1" parent="1">
          <mxGeometry x="630" y="540" width="180" height="30" as="geometry" />
        </mxCell>
        <mxCell id="ZyAtSVCC6lzZeVUkMO0P-17" value="Tarjeta" style="rounded=1;whiteSpace=wrap;html=1;" vertex="1" parent="1">
          <mxGeometry x="845" y="540" width="55" height="30" as="geometry" />
        </mxCell>
        <mxCell id="ZyAtSVCC6lzZeVUkMO0P-18" value="Tarjeta" style="rounded=1;whiteSpace=wrap;html=1;" vertex="1" parent="1">
          <mxGeometry x="905" y="540" width="55" height="30" as="geometry" />
        </mxCell>
        <mxCell id="ZyAtSVCC6lzZeVUkMO0P-19" value="Tarjeta" style="rounded=1;whiteSpace=wrap;html=1;" vertex="1" parent="1">
          <mxGeometry x="965" y="540" width="55" height="30" as="geometry" />
        </mxCell>
        <mxCell id="ZyAtSVCC6lzZeVUkMO0P-20" value="" style="rounded=0;whiteSpace=wrap;html=1;" vertex="1" parent="1">
          <mxGeometry x="740" y="657.5" width="25" height="10" as="geometry" />
        </mxCell>
        <mxCell id="ZyAtSVCC6lzZeVUkMO0P-21" value="" style="shape=cross;whiteSpace=wrap;html=1;" vertex="1" parent="1">
          <mxGeometry x="890" y="650" width="25" height="25" as="geometry" />
        </mxCell>
        <mxCell id="ZyAtSVCC6lzZeVUkMO0P-23" value="1" style="text;html=1;align=center;verticalAlign=middle;whiteSpace=wrap;rounded=0;fontStyle=1;fontSize=60;" vertex="1" parent="1">
          <mxGeometry x="795" y="650" width="60" height="30" as="geometry" />
        </mxCell>
        <mxCell id="ZyAtSVCC6lzZeVUkMO0P-24" value="COMPRAR" style="rounded=0;whiteSpace=wrap;html=1;" vertex="1" parent="1">
          <mxGeometry x="627.5" y="710" width="197" height="60" as="geometry" />
        </mxCell>
        <mxCell id="ZyAtSVCC6lzZeVUkMO0P-25" value="AGREGAR" style="rounded=0;whiteSpace=wrap;html=1;" vertex="1" parent="1">
          <mxGeometry x="836.5" y="710" width="197" height="60" as="geometry" />
        </mxCell>
        <mxCell id="ZyAtSVCC6lzZeVUkMO0P-26" value="CALCULAR" style="rounded=0;whiteSpace=wrap;html=1;" vertex="1" parent="1">
          <mxGeometry x="627.5" y="780" width="407" height="60" as="geometry" />
        </mxCell>
        <mxCell id="ZyAtSVCC6lzZeVUkMO0P-27" value="" style="verticalLabelPosition=bottom;shadow=0;dashed=0;align=center;html=1;verticalAlign=top;strokeWidth=1;shape=mxgraph.mockup.graphics.simpleIcon;strokeColor=#999999;" vertex="1" parent="1">
          <mxGeometry x="90" y="720" width="120" height="120" as="geometry" />
        </mxCell>
        <mxCell id="ZyAtSVCC6lzZeVUkMO0P-28" value="" style="verticalLabelPosition=bottom;shadow=0;dashed=0;align=center;html=1;verticalAlign=top;strokeWidth=1;shape=mxgraph.mockup.graphics.simpleIcon;strokeColor=#999999;" vertex="1" parent="1">
          <mxGeometry x="245" y="720" width="120" height="120" as="geometry" />
        </mxCell>
        <mxCell id="ZyAtSVCC6lzZeVUkMO0P-29" value="" style="verticalLabelPosition=bottom;shadow=0;dashed=0;align=center;html=1;verticalAlign=top;strokeWidth=1;shape=mxgraph.mockup.graphics.simpleIcon;strokeColor=#999999;" vertex="1" parent="1">
          <mxGeometry x="400" y="720" width="120" height="120" as="geometry" />
        </mxCell>
        <mxCell id="ZyAtSVCC6lzZeVUkMO0P-30" value="&lt;h1 style=&quot;margin-top: 0px; font-size: 17px;&quot;&gt;Detalle del Producto&lt;/h1&gt;&lt;p style=&quot;font-size: 17px;&quot;&gt;Lorem ipsum dolor sit amet, consectetur adipisicing elit, sed do eiusmod tempor incididunt ut labore et dolore magna aliqua.&lt;/p&gt;&lt;ul style=&quot;margin: 0px; padding: 0px; border: 0px; font-variant-numeric: inherit; font-variant-east-asian: inherit; font-variant-alternates: inherit; font-variant-position: inherit; font-stretch: inherit; font-size: 17px; line-height: inherit; font-family: &amp;quot;Source Sans Pro&amp;quot;, sans-serif; font-optical-sizing: inherit; font-kerning: inherit; font-feature-settings: inherit; font-variation-settings: inherit; vertical-align: baseline; list-style-position: inside; list-style-image: initial; color: rgba(0, 0, 0, 0.8); text-align: justify; background-color: rgb(255, 255, 255);&quot;&gt;&lt;li style=&quot;margin: 0px 0px 10px; padding: 0px; border: 0px; font-style: inherit; font-variant: inherit; font-weight: inherit; font-stretch: inherit; font-size: 17px; line-height: inherit; font-family: inherit; font-optical-sizing: inherit; font-kerning: inherit; font-feature-settings: inherit; font-variation-settings: inherit; vertical-align: baseline;&quot;&gt;Lorem ipsum dolor sit amet consectetur, adipiscing elit per.&lt;/li&gt;&lt;li style=&quot;margin: 0px 0px 10px; padding: 0px; border: 0px; font-style: inherit; font-variant: inherit; font-weight: inherit; font-stretch: inherit; font-size: 17px; line-height: inherit; font-family: inherit; font-optical-sizing: inherit; font-kerning: inherit; font-feature-settings: inherit; font-variation-settings: inherit; vertical-align: baseline;&quot;&gt;Magnis risus fringilla mattis netus augue, euismod eu suspendisse.&lt;/li&gt;&lt;li style=&quot;margin: 0px 0px 10px; padding: 0px; border: 0px; font-style: inherit; font-variant: inherit; font-weight: inherit; font-stretch: inherit; font-size: 17px; line-height: inherit; font-family: inherit; font-optical-sizing: inherit; font-kerning: inherit; font-feature-settings: inherit; font-variation-settings: inherit; vertical-align: baseline;&quot;&gt;Lorem ipsum dolor sit amet consectetur, adipiscing elit per.&lt;/li&gt;&lt;li style=&quot;margin: 0px 0px 10px; padding: 0px; border: 0px; font-style: inherit; font-variant: inherit; font-weight: inherit; font-stretch: inherit; font-size: 17px; line-height: inherit; font-family: inherit; font-optical-sizing: inherit; font-kerning: inherit; font-feature-settings: inherit; font-variation-settings: inherit; vertical-align: baseline;&quot;&gt;Magnis risus fringilla mattis netus augue, euismod eu suspendisse.&lt;/li&gt;&lt;li style=&quot;margin: 0px 0px 10px; padding: 0px; border: 0px; font-style: inherit; font-variant: inherit; font-weight: inherit; font-stretch: inherit; font-size: 17px; line-height: inherit; font-family: inherit; font-optical-sizing: inherit; font-kerning: inherit; font-feature-settings: inherit; font-variation-settings: inherit; vertical-align: baseline;&quot;&gt;Lorem ipsum dolor sit amet consectetur, adipiscing elit per.&lt;/li&gt;&lt;li style=&quot;margin: 0px 0px 10px; padding: 0px; border: 0px; font-style: inherit; font-variant: inherit; font-weight: inherit; font-stretch: inherit; font-size: 17px; line-height: inherit; font-family: inherit; font-optical-sizing: inherit; font-kerning: inherit; font-feature-settings: inherit; font-variation-settings: inherit; vertical-align: baseline;&quot;&gt;Magnis risus fringilla mattis netus augue, euismod eu suspendisse.&lt;/li&gt;&lt;li style=&quot;margin: 0px 0px 10px; padding: 0px; border: 0px; font-style: inherit; font-variant: inherit; font-weight: inherit; font-stretch: inherit; font-size: 17px; line-height: inherit; font-family: inherit; font-optical-sizing: inherit; font-kerning: inherit; font-feature-settings: inherit; font-variation-settings: inherit; vertical-align: baseline;&quot;&gt;Lorem ipsum dolor sit amet consectetur, adipiscing elit per.&lt;/li&gt;&lt;li style=&quot;margin: 0px 0px 10px; padding: 0px; border: 0px; font-style: inherit; font-variant: inherit; font-weight: inherit; font-stretch: inherit; font-size: 17px; line-height: inherit; font-family: inherit; font-optical-sizing: inherit; font-kerning: inherit; font-feature-settings: inherit; font-variation-settings: inherit; vertical-align: baseline;&quot;&gt;Magnis risus fringilla mattis netus augue, euismod eu suspendisse.&lt;/li&gt;&lt;/ul&gt;" style="text;html=1;whiteSpace=wrap;overflow=hidden;rounded=0;fontSize=17;" vertex="1" parent="1">
          <mxGeometry x="80" y="870" width="955" height="330" as="geometry" />
        </mxCell>
      </root>
    </mxGraphModel>
  </diagram>
</mxfile>
